<?xml version="1.0" encoding="utf-8"?>
<!-- Generator: Adobe Illustrator 22.1.0, SVG Export Plug-In . SVG Version: 6.00 Build 0)  -->
<svg version="1.1" id="Layer_1" xmlns="http://www.w3.org/2000/svg" xmlns:xlink="http://www.w3.org/1999/xlink" x="0px" y="0px"
	 viewBox="0 0 800 600" style="enable-background:new 0 0 800 600;" xml:space="preserve">
<g>
	<polygon points="225,160.6 293,194.6 312,160.6 	"/>
	<polygon points="293,194.6 331,194.6 312,160.6 	"/>
	<polygon points="225,194.6 293,194.6 225,160.6 	"/>
	<polygon points="331,194.6 399,160.6 312,160.6 	"/>
	<polygon points="293,264.7 331,267.3 293,194.6 	"/>
	<polygon points="331,267.3 331,194.6 293,194.6 	"/>
	<polygon points="331,416.6 331,349.3 293,355.3 	"/>
	<polygon points="293,416.6 331,416.6 293,355.3 	"/>
	<polygon points="399,194.6 399,160.6 331,194.6 	"/>
	<polygon points="293,355.3 331,349.3 293,264.7 	"/>
	<polygon points="331,349.3 331,267.3 293,264.7 	"/>
	<polygon points="530.4,376.4 579.6,387.6 547.9,364.5 	"/>
	<polygon points="563.4,216.7 584.3,184.8 550.2,208.9 	"/>
	<polygon points="550.2,208.9 559.9,170.5 522.5,199.3 	"/>
	<polygon points="546.1,412.4 579.6,387.6 530.4,376.4 	"/>
	<polygon points="584.3,184.8 559.9,170.5 550.2,208.9 	"/>
	<polygon points="434.4,354.7 409.7,383.9 463.7,372.4 	"/>
	<polygon points="409.7,383.9 448.4,408.2 463.7,372.4 	"/>
	<polygon points="463.7,372.4 448.4,408.2 504.9,380.2 	"/>
	<polygon points="559.9,170.5 532.7,161.6 522.5,199.3 	"/>
	<polygon points="504.9,380.2 504.5,418.9 530.4,376.4 	"/>
	<polygon points="504.5,418.9 546.1,412.4 530.4,376.4 	"/>
	<polygon points="448.4,408.2 504.5,418.9 504.9,380.2 	"/>
	<polygon points="503.9,158.3 471.3,163.2 501.9,197 	"/>
	<polygon points="522.5,199.3 532.7,161.6 501.9,197 	"/>
	<polygon points="553.8,279.5 546.1,321.5 575.1,296.4 	"/>
	<polygon points="523.5,270.5 521.7,310 553.8,279.5 	"/>
	<polygon points="488.8,305.2 521.7,310 523.5,270.5 	"/>
	<polygon points="495.6,266.5 488.8,305.2 523.5,270.5 	"/>
	<polygon points="586.5,316 554,344.5 591.6,344.3 	"/>
	<polygon points="554,344.5 547.9,364.5 591.6,344.3 	"/>
	<polygon points="547.9,364.5 579.6,387.6 591.6,344.3 	"/>
	<polygon points="575.1,296.4 546.1,321.5 586.5,316 	"/>
	<polygon points="460.6,296.4 488.8,305.2 495.6,266.5 	"/>
	<polygon points="546.1,321.5 554,344.5 586.5,316 	"/>
	<polygon points="521.7,310 546.1,321.5 553.8,279.5 	"/>
	<polygon points="444.5,179.1 430.4,198.1 472.9,206 	"/>
	<polygon points="471.3,163.2 444.5,179.1 472.9,206 	"/>
	<polygon points="472.9,206 430.4,198.1 460.5,233.8 	"/>
	<polygon points="501.9,197 471.3,163.2 472.9,206 	"/>
	<polygon points="532.7,161.6 503.9,158.3 501.9,197 	"/>
	<polygon points="430.4,198.1 422.9,233.3 460.5,233.8 	"/>
	<polygon points="427.2,259.2 440.1,280.8 468.8,253.8 	"/>
	<polygon points="440.1,280.8 460.6,296.4 468.8,253.8 	"/>
	<polygon points="468.8,253.8 460.6,296.4 495.6,266.5 	"/>
	<polygon points="422.9,233.3 427.2,259.2 460.5,233.8 	"/>
	<polygon points="460.5,233.8 427.2,259.2 468.8,253.8 	"/>
</g>
</svg>
