<?xml version="1.0" encoding="utf-8"?>
<!-- Generator: Adobe Illustrator 22.1.0, SVG Export Plug-In . SVG Version: 6.00 Build 0)  -->
<svg version="1.1" id="Layer_1" xmlns="http://www.w3.org/2000/svg" xmlns:xlink="http://www.w3.org/1999/xlink" x="0px" y="0px"
	 viewBox="0 0 800 600" style="enable-background:new 0 0 800 600;" xml:space="preserve">
<g>
	<polygon points="190.9,299.6 233.2,276.7 206.6,245.4 	"/>
	<polygon points="180,337.3 233.2,276.7 190.9,299.6 	"/>
	<polygon points="194.3,398.4 214.5,335.2 180,337.3 	"/>
	<polygon points="233.2,276.7 253,214.8 206.6,245.4 	"/>
	<polygon points="206.6,245.4 253,214.8 222.3,191 	"/>
	<polygon points="222.3,191 276.3,142.1 236.5,142.1 	"/>
	<polygon points="253,214.8 276.3,142.1 222.3,191 	"/>
	<polygon points="165.1,398.4 194.3,398.4 180,337.3 	"/>
	<polygon points="214.5,335.2 233.2,276.7 180,337.3 	"/>
	<polygon points="123.1,142.1 98.8,190.6 134.2,180.5 	"/>
	<polygon points="134.2,180.5 98.8,190.6 149,231.9 	"/>
	<polygon points="83.3,142.1 98.8,190.6 123.1,142.1 	"/>
	<polygon points="98.8,190.6 118.1,251.1 149,231.9 	"/>
	<polygon points="149,231.9 118.1,251.1 162.7,279.6 	"/>
	<polygon points="140.3,320.6 165.1,398.4 180,337.3 	"/>
	<polygon points="162.7,279.6 140.3,320.6 180,337.3 	"/>
	<polygon points="118.1,251.1 140.3,320.6 162.7,279.6 	"/>
	<polygon points="429.1,393.5 455.9,375.7 429.3,347.4 	"/>
	<polygon points="330.7,375.7 363.4,395.8 357,347.4 	"/>
	<polygon points="357,347.4 363.4,395.8 393,361.8 	"/>
	<polygon points="313.3,352.1 330.7,375.7 357,347.4 	"/>
	<polygon points="304.8,311.6 313.3,352.1 342.4,307.5 	"/>
	<polygon points="363.4,395.8 393,400.5 393,361.8 	"/>
	<polygon points="393,361.8 429.1,393.5 429.3,347.4 	"/>
	<polygon points="393,400.5 429.1,393.5 393,361.8 	"/>
	<polygon points="342.4,307.5 313.3,352.1 357,347.4 	"/>
	<polygon points="304.8,178.2 304.8,222.4 342.4,181.6 	"/>
	<polygon points="304.8,142.1 304.8,178.2 342.4,181.6 	"/>
	<polygon points="342.4,181.6 304.8,222.4 342.4,222.4 	"/>
	<polygon points="342.4,271.3 304.8,311.6 342.4,307.5 	"/>
	<polygon points="304.8,271.3 304.8,311.6 342.4,271.3 	"/>
	<polygon points="342.4,222.4 304.8,222.4 342.4,271.3 	"/>
	<polygon points="304.8,222.4 304.8,271.3 342.4,271.3 	"/>
	<polygon points="342.4,142.1 304.8,142.1 342.4,181.6 	"/>
	<polygon points="481.2,192 481.2,142.1 443.6,186.8 	"/>
	<polygon points="443.6,186.8 481.2,142.1 443.6,142.1 	"/>
	<polygon points="455.9,375.7 474.5,347.8 429.3,347.4 	"/>
	<polygon points="481.2,258.8 481.2,192 443.6,240.6 	"/>
	<polygon points="443.6,240.6 481.2,192 443.6,186.8 	"/>
	<polygon points="474.5,347.8 481.2,311.5 443.6,307.5 	"/>
	<polygon points="429.3,347.4 474.5,347.8 443.6,307.5 	"/>
	<polygon points="443.6,307.5 481.2,258.8 443.6,240.6 	"/>
	<polygon points="481.2,311.5 481.2,258.8 443.6,307.5 	"/>
	<polygon points="694.7,142.1 641.3,142.1 626.5,178.6 	"/>
	<polygon points="694.7,178.6 694.7,142.1 626.5,178.6 	"/>
	<polygon points="536.1,316.8 573.7,286.4 536.1,271.3 	"/>
	<polygon points="536.1,271.3 573.7,252 536.1,225.8 	"/>
	<polygon points="626.5,178.6 641.3,142.1 573.7,178.6 	"/>
	<polygon points="573.7,286.4 573.7,252 536.1,271.3 	"/>
	<polygon points="573.7,361.8 573.7,286.4 536.1,316.8 	"/>
	<polygon points="573.7,178.6 536.1,225.8 573.7,209.3 	"/>
	<polygon points="575.4,142.1 536.1,142.1 573.7,178.6 	"/>
	<polygon points="536.1,225.8 573.7,252 573.7,209.3 	"/>
	<polygon points="536.1,175.6 536.1,225.8 573.7,178.6 	"/>
	<polygon points="536.1,142.1 536.1,175.6 573.7,178.6 	"/>
	<polygon points="641.3,142.1 575.4,142.1 573.7,178.6 	"/>
	<polygon points="619.6,252 573.7,252 573.7,286.4 	"/>
	<polygon points="694.7,361.8 662.9,361.8 694.7,398.4 	"/>
	<polygon points="623.1,286.4 619.6,252 573.7,286.4 	"/>
	<polygon points="677,252 619.6,252 677,286.4 	"/>
	<polygon points="536.1,360.1 573.7,361.8 536.1,316.8 	"/>
	<polygon points="677,286.4 619.6,252 623.1,286.4 	"/>
	<polygon points="694.7,398.4 662.9,361.8 643.9,398.4 	"/>
	<polygon points="536.1,398.4 573.7,361.8 536.1,360.1 	"/>
	<polygon points="571.1,398.4 573.7,361.8 536.1,398.4 	"/>
	<polygon points="662.9,361.8 610.1,361.8 643.9,398.4 	"/>
	<polygon points="610.1,361.8 573.7,361.8 571.1,398.4 	"/>
	<polygon points="643.9,398.4 610.1,361.8 571.1,398.4 	"/>
</g>
</svg>
